<svg width="50" height="50" viewBox="0 0 50 50" fill="none" xmlns="http://www.w3.org/2000/svg">
<path d="M22.7051 0.504989C24.1602 -0.167765 25.8398 -0.167765 27.2949 0.504989L48.6426 10.3711C49.4727 10.752 50 11.582 50 12.4121C50 13.4082 49.4727 14.2383 48.6426 14.6289L27.2949 24.4922C25.8398 25.166 24.1602 25.166 22.7051 24.4922L1.36035 14.6289C0.531055 14.2383 0 13.4082 0 12.4121C0 11.582 0.530957 10.752 1.36035 10.3711L22.7051 0.504989ZM48.6426 22.8711C49.4727 23.252 50 24.082 50 24.9121C50 25.9082 49.4727 26.7383 48.6426 27.1289L27.2949 36.9922C25.8398 37.666 24.1602 37.666 22.7051 36.9922L1.36035 27.1289C0.531055 26.7383 0 25.9082 0 24.9121C0 24.082 0.530957 23.252 1.36035 22.8711L6.55566 20.4688L21.3965 27.3242C23.6816 28.3887 26.3184 28.3887 28.6035 27.3242L43.4473 20.4688L48.6426 22.8711ZM28.6035 39.8242L43.4473 32.9688L48.6426 35.3711C49.4727 35.752 50 36.582 50 37.4121C50 38.4082 49.4727 39.2383 48.6426 39.6289L27.2949 49.4922C25.8398 50.166 24.1602 50.166 22.7051 49.4922L1.36035 39.6289C0.531055 39.2383 0 38.4082 0 37.4121C0 36.582 0.530957 35.752 1.36035 35.3711L6.55566 32.9688L21.3965 39.8242C23.6816 40.8887 26.3184 40.8887 28.6035 39.8242Z" fill="#FFFDFD"/>
</svg>
